<svg id="Icons" viewBox="0 0 60 60" xmlns="http://www.w3.org/2000/svg"><path d="m1 20v-16c0-1.657 1.343-3 3-3h12.5c.944 0 1.833.445 2.4 1.2l1.2 1.6c.567.755 1.456 1.2 2.4 1.2h21.5c1.657 0 3 1.343 3 3v8s-1 4-1 4z" fill="#70b1fe"/><path d="m43 19v-9c0-.552-.448-1-1-1h-36c-.552 0-1 .448-1 1v9z" fill="#e8ecef"/><path d="m38 43h6c1.657 0 3-1.343 3-3v-24c0-1.657-1.343-3-3-3h-12.5c-.944 0-1.833.445-2.4 1.2l-1.2 1.6c-.567.755-1.456 1.2-2.4 1.2h-21.5c-1.657 0-3 1.343-3 3v20c0 1.657 1.343 3 3 3z" fill="#93d3fe"/><path d="m36 27 1.497-3.743c.304-.759 1.039-1.257 1.857-1.257h9.292c.818 0 1.553.498 1.857 1.257l1.497 3.743v2h-16z" fill="#717c89"/><path d="m57 33-1.858 24.153c-.08 1.042-.949 1.847-1.994 1.847h-18.296c-1.045 0-1.914-.805-1.994-1.847l-1.858-24.153 1-2h24z" fill="#717c89"/><rect fill="#576470" height="6" rx="1" width="30" x="29" y="27"/><g fill="#161616"><path d="m58 26h-5.323l-1.246-3.115c-.459-1.145-1.552-1.885-2.786-1.885h-.646v-13c0-2.206-1.794-4-4-4h-21.5c-.626 0-1.225-.299-1.601-.8l-1.199-1.601c-.751-1.001-1.947-1.599-3.199-1.599h-12.5c-2.206 0-4 1.794-4 4v3c0 .553.447 1 1 1s1-.447 1-1v-3c0-1.103.897-2 2-2h12.5c.626 0 1.225.299 1.601.8l1.199 1.601c.752 1.002 1.948 1.6 3.2 1.6h21.5c1.103 0 2 .897 2 2v4.556c-.591-.344-1.268-.556-2-.556v-2c0-1.103-.897-2-2-2h-36c-1.103 0-2 .897-2 2v6c-.732 0-1.409.212-2 .556v-5.556c0-.553-.447-1-1-1s-1 .447-1 1v29c0 2.206 1.794 4 4 4h26.843l1.018 13.229c.119 1.554 1.434 2.771 2.991 2.771h18.295c1.558 0 2.872-1.217 2.991-2.77l1.787-23.23h.074c1.103 0 2-.897 2-2v-4c0-1.103-.897-2-2-2zm-8.426-2.372.949 2.372h-13.046l.949-2.371c.152-.382.518-.629.929-.629h9.291c.411 0 .776.247.929.628zm-43.574-13.628h36v2h-10.5c-1.252 0-2.448.598-3.2 1.601l-1.199 1.599c-.376.502-.975.801-1.601.801h-19.5v-6zm-2 32c-1.103 0-2-.897-2-2v-20c0-1.103.897-2 2-2h21.5c1.252 0 2.448-.598 3.2-1.601l1.199-1.599c.376-.502.975-.801 1.601-.801h12.5c1.103 0 2 .897 2 2v5h-6.646c-1.234 0-2.327.74-2.786 1.886l-1.246 3.114h-5.323c-1.103 0-2 .897-2 2v4c0 1.103.897 2 2 2h.074l.616 8h-26.689zm50.145 15.077c-.04.518-.478.923-.997.923h-18.295c-.52 0-.957-.405-.997-.924l-1.776-23.076h23.84l-1.776 23.077zm-24.145-25.077v-4h28l.002 4z"/><path d="m44 54c.553 0 1-.447 1-1v-14c0-.553-.447-1-1-1s-1 .447-1 1v14c0 .553.447 1 1 1z"/><path d="m37.999 54c.023 0 .048 0 .072-.003.551-.039.966-.518.926-1.068l-1-14c-.039-.551-.501-.966-1.068-.926-.551.039-.966.518-.926 1.068l1 14c.037.526.477.929.996.929z"/><path d="m49.929 53.997c.024.002.049.003.072.003.52 0 .959-.402.996-.929l1-14c.04-.551-.375-1.029-.926-1.068-.563-.037-1.03.375-1.068.926l-1 14c-.04.551.375 1.029.926 1.068z"/></g></svg>