<svg version="1.1" id="Capa_1" xmlns="http://www.w3.org/2000/svg" xmlns:xlink="http://www.w3.org/1999/xlink" x="0px" y="0px" viewBox="0 0 512 512" style="enable-background:new 0 0 512 512;" xml:space="preserve">
<g>
	<g>
		<g>
			<g>
				<g>
					<path style="fill:#D8ECFE;" d="M421.667,172.439v-48.308c0-18.299-14.834-33.133-33.133-33.133h-99.4&#10;&#9;&#9;&#9;&#9;&#9;&#9;c-18.299,0-33.133,14.834-33.133,33.133v48.308H421.667z"/>
					<path style="fill:#C4E2FF;" d="M390,91.035v48.406c0,5.523-4.477,10-10,10H256v22.998h165.667v-48.308&#10;&#9;&#9;&#9;&#9;&#9;&#9;C421.667,106.324,407.618,91.803,390,91.035z"/>
					<polygon style="fill:#685E68;" points="316.686,90.998 330.623,127.677 331.44,128.677 346.155,128.677 346.991,127.677 &#10;&#9;&#9;&#9;&#9;&#9;&#9;360.658,90.998 &#9;&#9;&#9;&#9;&#9;"/>
					<path style="fill:#05E39C;" d="M35.847,335.467c-7.72,0-14-6.28-14-14V186.439c0-7.72,6.28-14,14-14h440.306&#10;&#9;&#9;&#9;&#9;&#9;&#9;c7.72,0,14,6.28,14,14v135.028c0,7.72-6.28,14-14,14H35.847z"/>
					<path style="fill:#0ED290;" d="M476.153,172.439H458v117.588c0,7.72-6.28,14-14,14H21.847v17.439c0,7.72,6.28,14,14,14h440.306&#10;&#9;&#9;&#9;&#9;&#9;&#9;c7.72,0,14-6.28,14-14V186.439C490.153,178.72,483.873,172.439,476.153,172.439z"/>
					<polygon style="fill:#554E56;" points="355.846,172.439 346.991,127.677 330.623,127.677 321.55,172.439 &#9;&#9;&#9;&#9;&#9;"/>
					<polygon style="fill:#433F43;" points="326.211,149.441 321.55,172.439 355.846,172.439 351.296,149.441 &#9;&#9;&#9;&#9;&#9;"/>
					<circle style="fill:#C96E59;" cx="338.833" cy="52.412" r="44.912"/>
					<g>
						<path style="fill:#E2DEE2;" d="M256,172.439v-48.308c0-18.299-14.834-33.133-33.133-33.133h-99.4&#10;&#9;&#9;&#9;&#9;&#9;&#9;&#9;c-18.299,0-33.133,14.834-33.133,33.133v48.308H256z"/>
						<path style="fill:#CBC4CC;" d="M224.333,91.035v48.406c0,5.523-4.477,10-10,10h-124v22.998H256v-48.308&#10;&#9;&#9;&#9;&#9;&#9;&#9;&#9;C256,106.324,241.951,91.803,224.333,91.035z"/>
						<polygon style="fill:#26A6FE;" points="151.019,90.998 164.956,127.677 165.774,128.677 180.488,128.677 181.324,127.677 &#10;&#9;&#9;&#9;&#9;&#9;&#9;&#9;194.992,90.998 &#9;&#9;&#9;&#9;&#9;&#9;"/>
						<polygon style="fill:#0593FC;" points="190.179,172.439 181.324,127.677 164.956,127.677 155.883,172.439 &#9;&#9;&#9;&#9;&#9;&#9;"/>
						<polygon style="fill:#0182FC;" points="160.545,149.441 155.883,172.439 190.179,172.439 185.63,149.441 &#9;&#9;&#9;&#9;&#9;&#9;"/>
						<circle style="fill:#FFCEBF;" cx="173.167" cy="52.412" r="44.912"/>
					</g>
				</g>
				<g>
					<g>
						<path style="fill:#D8ECFE;" d="M140.033,396.166h-99.4C22.334,396.166,7.5,411,7.5,429.299V494.5c0,5.523,4.477,10,10,10&#10;&#9;&#9;&#9;&#9;&#9;&#9;&#9;h155.667v-75.201C173.167,411,158.332,396.166,140.033,396.166z"/>
						<path style="fill:#C4E2FF;" d="M142,396.229v67.105c0,5.523-4.477,10-10,10H7.5V494.5c0,5.523,4.477,10,10,10h155.667v-75.201&#10;&#9;&#9;&#9;&#9;&#9;&#9;&#9;C173.167,411.661,159.383,397.247,142,396.229z"/>
						<circle style="fill:#FFCEBF;" cx="90.333" cy="357.58" r="44.912"/>
						<polygon style="fill:#685E68;" points="68.186,396.166 82.123,432.844 82.94,433.844 97.655,433.844 98.491,432.844 &#10;&#9;&#9;&#9;&#9;&#9;&#9;&#9;112.158,396.166 &#9;&#9;&#9;&#9;&#9;&#9;"/>
						<polygon style="fill:#554E56;" points="112.666,504.5 98.491,432.844 82.123,432.844 67.6,504.5 &#9;&#9;&#9;&#9;&#9;&#9;"/>
						<polygon style="fill:#433F43;" points="73.916,473.334 67.6,504.5 112.666,504.5 106.501,473.334 &#9;&#9;&#9;&#9;&#9;&#9;"/>
					</g>
					<g>
						<path style="fill:#FFE177;" d="M305.7,396.166h-99.4c-18.299,0-33.133,14.834-33.133,33.133V504.5h165.667v-75.201&#10;&#9;&#9;&#9;&#9;&#9;&#9;&#9;C338.833,411,323.999,396.166,305.7,396.166z"/>
						<path style="fill:#FFD15B;" d="M307.667,396.229v67.105c0,5.523-4.477,10-10,10h-124.5V504.5h165.667v-75.201&#10;&#9;&#9;&#9;&#9;&#9;&#9;&#9;C338.833,411.661,325.049,397.247,307.667,396.229z"/>
						<path style="fill:#FFD15B;" d="M256,402.627l34.171,28.911c3.25,2.749,8.229,0.44,8.229-3.817l0-31.554h-84.802l0,31.554&#10;&#9;&#9;&#9;&#9;&#9;&#9;&#9;c0,4.257,4.98,6.566,8.229,3.817L256,402.627z"/>
						<circle style="fill:#C96E59;" cx="256" cy="357.58" r="44.912"/>
					</g>
					<g>
						<g>
							<path style="fill:#B5ADB6;" d="M380.266,396.166h-8.299c-18.299,0-33.133,14.834-33.133,33.133V504.5h41.432V396.166z"/>
							<path style="fill:#A79BA7;" d="M471.367,396.166h-8.299V504.5H494.5c5.523,0,10-4.477,10-10v-65.201&#10;&#9;&#9;&#9;&#9;&#9;&#9;&#9;&#9;C504.5,411,489.666,396.166,471.367,396.166z"/>
						</g>
						<rect x="338.833" y="473.334" style="fill:#A79BA7;" width="40.432" height="31.166"/>
						<rect x="379.266" y="396.166" style="fill:#D8ECFE;" width="84.802" height="108.334"/>
						<rect x="379.266" y="473.334" style="fill:#C4E2FF;" width="84.802" height="31.166"/>
						<polygon style="fill:#C4E2FF;" points="421.667,402.627 464.068,438.5 464.068,396.166 379.266,396.166 379.266,438.5 &#9;&#9;&#9;&#9;&#9;&#9;&#10;&#9;&#9;&#9;&#9;&#9;&#9;&#9;"/>
						<circle style="fill:#FFCEBF;" cx="421.667" cy="357.58" r="44.912"/>
					</g>
				</g>
			</g>
			<path style="fill:#BB5D4C;" d="M345.957,8.068c4.15,6.804,6.543,14.798,6.543,23.352c0,24.804-20.108,44.912-44.912,44.912&#10;&#9;&#9;&#9;&#9;c-2.425,0-4.803-0.198-7.124-0.568c7.885,12.928,22.119,21.561,38.37,21.561c24.804,0,44.912-20.108,44.912-44.912&#10;&#9;&#9;&#9;&#9;C383.746,30.033,367.375,11.483,345.957,8.068z"/>
			<path style="fill:#FFB09E;" d="M180.291,8.068c4.15,6.804,6.543,14.798,6.543,23.352c0,24.804-20.108,44.912-44.912,44.912&#10;&#9;&#9;&#9;&#9;c-2.425,0-4.803-0.198-7.124-0.568c7.885,12.928,22.119,21.561,38.37,21.561c24.804,0,44.912-20.108,44.912-44.912&#10;&#9;&#9;&#9;&#9;C218.079,30.033,201.709,11.483,180.291,8.068z"/>
			<path style="fill:#FFB09E;" d="M428.791,313.236c4.15,6.804,6.543,14.798,6.543,23.352c0,24.804-20.108,44.912-44.912,44.912&#10;&#9;&#9;&#9;&#9;c-2.425,0-4.803-0.198-7.124-0.568c7.885,12.928,22.119,21.561,38.37,21.561c24.804,0,44.912-20.108,44.912-44.912&#10;&#9;&#9;&#9;&#9;C466.579,335.201,450.209,316.651,428.791,313.236z"/>
			<path style="fill:#BB5D4C;" d="M263.124,313.236c4.15,6.804,6.543,14.798,6.543,23.352c0,24.804-20.108,44.912-44.912,44.912&#10;&#9;&#9;&#9;&#9;c-2.425,0-4.803-0.198-7.124-0.568c7.885,12.928,22.119,21.561,38.37,21.561c24.804,0,44.912-20.108,44.912-44.912&#10;&#9;&#9;&#9;&#9;C300.912,335.201,284.542,316.651,263.124,313.236z"/>
			<path style="fill:#FFB09E;" d="M97.457,313.236c4.15,6.804,6.543,14.798,6.543,23.352c0,24.804-20.108,44.912-44.912,44.912&#10;&#9;&#9;&#9;&#9;c-2.425,0-4.803-0.198-7.124-0.568c7.885,12.928,22.119,21.561,38.37,21.561c24.804,0,44.912-20.108,44.912-44.912&#10;&#9;&#9;&#9;&#9;C135.246,335.201,118.875,316.651,97.457,313.236z"/>
		</g>
	</g>
	<g>
		<g>
			<g>
				<path style="fill:none;stroke:#000000;stroke-width:15;stroke-linecap:round;stroke-linejoin:round;stroke-miterlimit:10;" d="&#10;&#9;&#9;&#9;&#9;&#9;M315.85,90.998h-26.717c-18.299,0-33.133,14.834-33.133,33.133v48.308h165.667v-48.308c0-18.299-14.834-33.133-33.133-33.133&#10;&#9;&#9;&#9;&#9;&#9;h-26.717"/>
				
					<line style="fill:none;stroke:#000000;stroke-width:15;stroke-linecap:round;stroke-linejoin:round;stroke-miterlimit:10;" x1="295.086" y1="335.467" x2="382.58" y2="335.467"/>
				
					<line style="fill:none;stroke:#000000;stroke-width:15;stroke-linecap:round;stroke-linejoin:round;stroke-miterlimit:10;" x1="129.42" y1="335.467" x2="216.914" y2="335.467"/>
				<path style="fill:none;stroke:#000000;stroke-width:15;stroke-linecap:round;stroke-linejoin:round;stroke-miterlimit:10;" d="&#10;&#9;&#9;&#9;&#9;&#9;M21.847,270v51.467c0,7.72,6.28,14,14,14h15.4"/>
				<path style="fill:none;stroke:#000000;stroke-width:15;stroke-linecap:round;stroke-linejoin:round;stroke-miterlimit:10;" d="&#10;&#9;&#9;&#9;&#9;&#9;M460.753,335.467h15.4c7.72,0,14-6.28,14-14V186.439c0-7.72-6.28-14-14-14H35.847c-7.72,0-14,6.28-14,14V235"/>
				
					<polygon style="fill:none;stroke:#000000;stroke-width:15;stroke-linecap:round;stroke-linejoin:round;stroke-miterlimit:10;" points="&#10;&#9;&#9;&#9;&#9;&#9;355.846,172.439 346.991,127.677 330.623,127.677 321.55,172.439 &#9;&#9;&#9;&#9;"/>
				<path style="fill:none;stroke:#000000;stroke-width:15;stroke-linecap:round;stroke-linejoin:round;stroke-miterlimit:10;" d="&#10;&#9;&#9;&#9;&#9;&#9;M222.867,90.998H196.15c-6.724,4.014-14.582,6.326-22.983,6.326c-8.4,0-16.258-2.312-22.983-6.326h-26.717&#10;&#9;&#9;&#9;&#9;&#9;c-18.299,0-33.133,14.834-33.133,33.133v48.308H256v-48.308C256,105.832,241.166,90.998,222.867,90.998z"/>
				
					<line style="fill:none;stroke:#000000;stroke-width:15;stroke-linecap:round;stroke-linejoin:round;stroke-miterlimit:10;" x1="151.252" y1="91.613" x2="164.956" y2="127.677"/>
				
					<line style="fill:none;stroke:#000000;stroke-width:15;stroke-linecap:round;stroke-linejoin:round;stroke-miterlimit:10;" x1="181.324" y1="127.677" x2="194.676" y2="91.845"/>
				
					<polygon style="fill:none;stroke:#000000;stroke-width:15;stroke-linecap:round;stroke-linejoin:round;stroke-miterlimit:10;" points="&#10;&#9;&#9;&#9;&#9;&#9;190.179,172.439 181.324,127.677 164.956,127.677 155.883,172.439 &#9;&#9;&#9;&#9;"/>
				<path style="fill:none;stroke:#000000;stroke-width:15;stroke-linecap:round;stroke-linejoin:round;stroke-miterlimit:10;" d="&#10;&#9;&#9;&#9;&#9;&#9;M228.387,291.345l29.839-78.346c0.61-1.491,2.72-1.493,3.333-0.003l29.568,78.35"/>
				
					<line style="fill:none;stroke:#000000;stroke-width:15;stroke-linecap:round;stroke-linejoin:round;stroke-miterlimit:10;" x1="237.693" y1="271.833" x2="281.971" y2="271.833"/>
				
					<polyline style="fill:none;stroke:#000000;stroke-width:15;stroke-linecap:round;stroke-linejoin:round;stroke-miterlimit:10;" points="&#10;&#9;&#9;&#9;&#9;&#9;349.282,212.171 317.31,212.171 317.31,291.054 &#9;&#9;&#9;&#9;"/>
				
					<line style="fill:none;stroke:#000000;stroke-width:15;stroke-linecap:round;stroke-linejoin:round;stroke-miterlimit:10;" x1="317.31" y1="250.865" x2="346.742" y2="250.865"/>
				
					<polyline style="fill:none;stroke:#000000;stroke-width:15;stroke-linecap:round;stroke-linejoin:round;stroke-miterlimit:10;" points="&#10;&#9;&#9;&#9;&#9;&#9;407.493,212.171 375.521,212.171 375.521,291.054 &#9;&#9;&#9;&#9;"/>
				
					<line style="fill:none;stroke:#000000;stroke-width:15;stroke-linecap:round;stroke-linejoin:round;stroke-miterlimit:10;" x1="375.521" y1="250.865" x2="404.953" y2="250.865"/>
				<path style="fill:none;stroke:#000000;stroke-width:15;stroke-linecap:round;stroke-linejoin:round;stroke-miterlimit:10;" d="&#10;&#9;&#9;&#9;&#9;&#9;M153.485,220.049c0,0-14.259-11.986-31.074-6.921c-15.44,4.651-17.599,22.454-6.429,29.737c0,0,10.961,4.89,23.118,9.374&#10;&#9;&#9;&#9;&#9;&#9;c29.264,10.794,16.658,39.106-6.9,39.106c-11.798,0-21.699-5.166-27.692-11.779"/>
				
					<line style="fill:none;stroke:#000000;stroke-width:15;stroke-linecap:round;stroke-linejoin:round;stroke-miterlimit:10;" x1="176.107" y1="211.88" x2="219.992" y2="211.88"/>
				
					<line style="fill:none;stroke:#000000;stroke-width:15;stroke-linecap:round;stroke-linejoin:round;stroke-miterlimit:10;" x1="197.961" y1="214.417" x2="197.961" y2="291.345"/>
				<path style="fill:none;stroke:#000000;stroke-width:15;stroke-linecap:round;stroke-linejoin:round;stroke-miterlimit:10;" d="&#10;&#9;&#9;&#9;&#9;&#9;M67.35,396.166H40.633C22.334,396.166,7.5,411,7.5,429.299V440"/>
				<path style="fill:none;stroke:#000000;stroke-width:15;stroke-linecap:round;stroke-linejoin:round;stroke-miterlimit:10;" d="&#10;&#9;&#9;&#9;&#9;&#9;M7.5,475v19.5c0,5.523,4.477,10,10,10h155.667v-75.201c0-18.299-14.834-33.133-33.133-33.133h-26.717"/>
				
					<line style="fill:none;stroke:#000000;stroke-width:15;stroke-linecap:round;stroke-linejoin:round;stroke-miterlimit:10;" x1="98.491" y1="432.844" x2="111.843" y2="397.013"/>
				
					<line style="fill:none;stroke:#000000;stroke-width:15;stroke-linecap:round;stroke-linejoin:round;stroke-miterlimit:10;" x1="68.419" y1="396.78" x2="82.123" y2="432.844"/>
				
					<polygon style="fill:none;stroke:#000000;stroke-width:15;stroke-linecap:round;stroke-linejoin:round;stroke-miterlimit:10;" points="&#10;&#9;&#9;&#9;&#9;&#9;112.666,504.5 98.491,432.844 82.123,432.844 67.6,504.5 &#9;&#9;&#9;&#9;"/>
				<path style="fill:none;stroke:#000000;stroke-width:15;stroke-linecap:round;stroke-linejoin:round;stroke-miterlimit:10;" d="&#10;&#9;&#9;&#9;&#9;&#9;M233.017,396.166H206.3c-18.299,0-33.133,14.834-33.133,33.133V504.5h165.667v-75.201c0-18.299-14.834-33.133-33.133-33.133&#10;&#9;&#9;&#9;&#9;&#9;h-26.717"/>
				<path style="fill:none;stroke:#000000;stroke-width:15;stroke-linecap:round;stroke-linejoin:round;stroke-miterlimit:10;" d="&#10;&#9;&#9;&#9;&#9;&#9;M213.599,396.166v31.554c0,4.257,4.98,6.567,8.229,3.817L256,402.627l34.171,28.911c3.25,2.75,8.229,0.44,8.229-3.817v-31.554"/>
				<g>
					
						<line style="fill:none;stroke:#000000;stroke-width:15;stroke-linecap:round;stroke-linejoin:round;stroke-miterlimit:10;" x1="256" y1="439.289" x2="256" y2="440.5"/>
					
						<line style="fill:none;stroke:#000000;stroke-width:15;stroke-linecap:round;stroke-linejoin:round;stroke-miterlimit:10;" x1="256" y1="470.289" x2="256" y2="471.5"/>
				</g>
				<path style="fill:none;stroke:#000000;stroke-width:15;stroke-linecap:round;stroke-linejoin:round;stroke-miterlimit:10;" d="&#10;&#9;&#9;&#9;&#9;&#9;M398.684,396.166h-26.717c-18.299,0-33.133,14.834-33.133,33.133V504.5H494.5c5.523,0,10-4.477,10-10V475"/>
				<path style="fill:none;stroke:#000000;stroke-width:15;stroke-linecap:round;stroke-linejoin:round;stroke-miterlimit:10;" d="&#10;&#9;&#9;&#9;&#9;&#9;M504.5,440v-10.701c0-18.299-14.834-33.133-33.133-33.133H444.65"/>
				
					<polyline style="fill:none;stroke:#000000;stroke-width:15;stroke-linecap:round;stroke-linejoin:round;stroke-miterlimit:10;" points="&#10;&#9;&#9;&#9;&#9;&#9;379.266,396.166 379.266,504.5 464.068,504.5 464.068,396.166 &#9;&#9;&#9;&#9;"/>
				
					<polyline style="fill:none;stroke:#000000;stroke-width:15;stroke-linecap:round;stroke-linejoin:round;stroke-miterlimit:10;" points="&#10;&#9;&#9;&#9;&#9;&#9;379.266,438.5 421.667,402.627 464.068,438.5 &#9;&#9;&#9;&#9;"/>
				<g>
					
						<line style="fill:none;stroke:#000000;stroke-width:15;stroke-linecap:round;stroke-linejoin:round;stroke-miterlimit:10;" x1="421.667" y1="439.289" x2="421.667" y2="440.5"/>
					
						<line style="fill:none;stroke:#000000;stroke-width:15;stroke-linecap:round;stroke-linejoin:round;stroke-miterlimit:10;" x1="421.667" y1="470.289" x2="421.667" y2="471.5"/>
				</g>
				
					<circle style="fill:none;stroke:#000000;stroke-width:15;stroke-linecap:round;stroke-linejoin:round;stroke-miterlimit:10;" cx="173.167" cy="52.412" r="44.912"/>
				
					<line style="fill:none;stroke:#000000;stroke-width:15;stroke-linecap:round;stroke-linejoin:round;stroke-miterlimit:10;" x1="316.919" y1="91.613" x2="330.623" y2="127.677"/>
				
					<line style="fill:none;stroke:#000000;stroke-width:15;stroke-linecap:round;stroke-linejoin:round;stroke-miterlimit:10;" x1="346.991" y1="127.677" x2="360.343" y2="91.845"/>
				
					<circle style="fill:none;stroke:#000000;stroke-width:15;stroke-linecap:round;stroke-linejoin:round;stroke-miterlimit:10;" cx="90.333" cy="357.58" r="44.912"/>
				
					<circle style="fill:none;stroke:#000000;stroke-width:15;stroke-linecap:round;stroke-linejoin:round;stroke-miterlimit:10;" cx="256" cy="357.58" r="44.912"/>
			</g>
			
				<circle style="fill:none;stroke:#000000;stroke-width:15;stroke-linecap:round;stroke-linejoin:round;stroke-miterlimit:10;" cx="338.833" cy="52.412" r="44.912"/>
		</g>
		
			<circle style="fill:none;stroke:#000000;stroke-width:15;stroke-linecap:round;stroke-linejoin:round;stroke-miterlimit:10;" cx="421.667" cy="357.58" r="44.912"/>
	</g>
</g>
<g>
</g>
<g>
</g>
<g>
</g>
<g>
</g>
<g>
</g>
<g>
</g>
<g>
</g>
<g>
</g>
<g>
</g>
<g>
</g>
<g>
</g>
<g>
</g>
<g>
</g>
<g>
</g>
<g>
</g>
</svg>